<svg xmlns="http://www.w3.org/2000/svg" width="375" viewBox="0 0 375 150" height="150" version="1.0"><g fill="#423D3D"><g><g><path d="M 18.4375 0.546875 C 13.976562 0.546875 10.421875 -1.070312 7.765625 -4.3125 C 5.109375 -7.550781 3.78125 -11.796875 3.78125 -17.046875 C 3.78125 -22.796875 5.109375 -28.238281 7.765625 -33.375 C 10.421875 -38.519531 13.957031 -42.65625 18.375 -45.78125 C 22.800781 -48.914062 27.5 -50.484375 32.46875 -50.484375 C 34.050781 -50.484375 35.109375 -50.175781 35.640625 -49.5625 C 36.179688 -48.945312 36.632812 -47.847656 37 -46.265625 C 38.507812 -46.554688 40.085938 -46.703125 41.734375 -46.703125 C 45.265625 -46.703125 47.03125 -45.441406 47.03125 -42.921875 C 47.03125 -41.410156 46.488281 -37.816406 45.40625 -32.140625 C 43.75 -23.867188 42.921875 -18.117188 42.921875 -14.890625 C 42.921875 -13.804688 43.191406 -12.941406 43.734375 -12.296875 C 44.273438 -11.648438 44.976562 -11.328125 45.84375 -11.328125 C 47.207031 -11.328125 48.859375 -12.207031 50.796875 -13.96875 C 52.742188 -15.726562 55.367188 -18.585938 58.671875 -22.546875 C 59.535156 -23.546875 60.507812 -24.046875 61.59375 -24.046875 C 62.519531 -24.046875 63.253906 -23.613281 63.796875 -22.75 C 64.335938 -21.894531 64.609375 -20.710938 64.609375 -19.203125 C 64.609375 -16.328125 63.925781 -14.097656 62.5625 -12.515625 C 59.613281 -8.847656 56.484375 -5.753906 53.171875 -3.234375 C 49.867188 -0.710938 46.671875 0.546875 43.578125 0.546875 C 41.203125 0.546875 39.023438 -0.257812 37.046875 -1.875 C 35.066406 -3.5 33.578125 -5.710938 32.578125 -8.515625 C 28.835938 -2.472656 24.125 0.546875 18.4375 0.546875 Z M 22.328125 -10.359375 C 23.910156 -10.359375 25.421875 -11.289062 26.859375 -13.15625 C 28.296875 -15.03125 29.335938 -17.507812 29.984375 -20.59375 L 33.96875 -40.453125 C 30.957031 -40.378906 28.171875 -39.242188 25.609375 -37.046875 C 23.054688 -34.859375 21.023438 -31.960938 19.515625 -28.359375 C 18.003906 -24.765625 17.25 -20.957031 17.25 -16.9375 C 17.25 -14.707031 17.695312 -13.050781 18.59375 -11.96875 C 19.5 -10.894531 20.742188 -10.359375 22.328125 -10.359375 Z M 22.328125 -10.359375" transform="translate(.015 116.684)"/></g></g></g><g fill="#423D3D"><g><g><path d="M 67.515625 -24.046875 C 68.453125 -24.046875 69.191406 -23.613281 69.734375 -22.75 C 70.273438 -21.894531 70.546875 -20.710938 70.546875 -19.203125 C 70.546875 -16.328125 69.859375 -14.097656 68.484375 -12.515625 C 65.253906 -8.554688 61.984375 -5.390625 58.671875 -3.015625 C 55.367188 -0.640625 51.453125 0.546875 46.921875 0.546875 C 41.378906 0.546875 36.914062 -1.035156 33.53125 -4.203125 C 30.15625 -7.367188 28.46875 -11.578125 28.46875 -16.828125 C 28.46875 -19.628906 29.910156 -21.640625 32.796875 -22.859375 C 35.953125 -24.234375 38.210938 -25.691406 39.578125 -27.234375 C 40.953125 -28.773438 41.640625 -30.660156 41.640625 -32.890625 C 41.640625 -34.191406 41.367188 -35.164062 40.828125 -35.8125 C 40.285156 -36.457031 39.617188 -36.78125 38.828125 -36.78125 C 36.890625 -36.78125 34.75 -35.375 32.40625 -32.5625 C 30.070312 -29.757812 27.894531 -26.144531 25.875 -21.71875 C 23.863281 -17.300781 22.285156 -12.757812 21.140625 -8.09375 C 20.347656 -4.707031 19.429688 -2.421875 18.390625 -1.234375 C 17.347656 -0.046875 15.710938 0.546875 13.484375 0.546875 C 11.253906 0.546875 9.617188 -0.257812 8.578125 -1.875 C 7.535156 -3.5 6.832031 -6 6.46875 -9.375 C 6.113281 -12.757812 5.9375 -17.722656 5.9375 -24.265625 C 5.9375 -35.335938 7.066406 -46.878906 9.328125 -58.890625 C 11.597656 -70.898438 14.941406 -80.984375 19.359375 -89.140625 C 23.785156 -97.304688 29.085938 -101.390625 35.265625 -101.390625 C 38.578125 -101.390625 41.253906 -99.96875 43.296875 -97.125 C 45.347656 -94.28125 46.375 -90.597656 46.375 -86.078125 C 46.375 -78.804688 44.253906 -71.269531 40.015625 -63.46875 C 35.773438 -55.664062 28.875 -46.554688 19.3125 -36.140625 C 19.09375 -32.398438 18.984375 -28.550781 18.984375 -24.59375 C 22.429688 -33.582031 26.382812 -40.109375 30.84375 -44.171875 C 35.300781 -48.234375 39.472656 -50.265625 43.359375 -50.265625 C 46.953125 -50.265625 49.84375 -49.039062 52.03125 -46.59375 C 54.226562 -44.144531 55.328125 -41.125 55.328125 -37.53125 C 55.328125 -33.582031 54.320312 -29.953125 52.3125 -26.640625 C 50.300781 -23.335938 46.847656 -20.390625 41.953125 -17.796875 C 42.242188 -15.859375 43.125 -14.296875 44.59375 -13.109375 C 46.070312 -11.921875 47.851562 -11.328125 49.9375 -11.328125 C 52.164062 -11.328125 54.320312 -12.1875 56.40625 -13.90625 C 58.488281 -15.632812 61.222656 -18.515625 64.609375 -22.546875 C 65.472656 -23.546875 66.441406 -24.046875 67.515625 -24.046875 Z M 33 -90.703125 C 31.707031 -90.703125 30.269531 -88.847656 28.6875 -85.140625 C 27.101562 -81.441406 25.570312 -76.445312 24.09375 -70.15625 C 22.625 -63.863281 21.425781 -57.015625 20.5 -49.609375 C 24.957031 -54.859375 28.640625 -60.578125 31.546875 -66.765625 C 34.460938 -72.953125 35.921875 -78.5625 35.921875 -83.59375 C 35.921875 -85.894531 35.664062 -87.65625 35.15625 -88.875 C 34.65625 -90.09375 33.9375 -90.703125 33 -90.703125 Z M 33 -90.703125" transform="translate(50.704 116.684)"/></g></g></g><g fill="#423D3D"><g><g><path d="M 12.828125 0.546875 C 10.097656 0.546875 8.175781 -0.890625 7.0625 -3.765625 C 5.945312 -6.648438 5.390625 -11.253906 5.390625 -17.578125 C 5.390625 -26.929688 6.722656 -35.8125 9.390625 -44.21875 C 10.035156 -46.300781 11.09375 -47.828125 12.5625 -48.796875 C 14.039062 -49.773438 16.109375 -50.265625 18.765625 -50.265625 C 20.203125 -50.265625 21.207031 -50.082031 21.78125 -49.71875 C 22.363281 -49.363281 22.65625 -48.679688 22.65625 -47.671875 C 22.65625 -46.523438 22.113281 -43.9375 21.03125 -39.90625 C 20.3125 -37.03125 19.734375 -34.515625 19.296875 -32.359375 C 18.867188 -30.203125 18.515625 -27.539062 18.234375 -24.375 C 20.597656 -30.5625 23.253906 -35.59375 26.203125 -39.46875 C 29.148438 -43.351562 32.046875 -46.125 34.890625 -47.78125 C 37.734375 -49.4375 40.34375 -50.265625 42.71875 -50.265625 C 47.382812 -50.265625 49.71875 -47.925781 49.71875 -43.25 C 49.71875 -40.445312 48.925781 -35.378906 47.34375 -28.046875 C 45.976562 -21.785156 45.296875 -17.648438 45.296875 -15.640625 C 45.296875 -12.765625 46.335938 -11.328125 48.421875 -11.328125 C 49.867188 -11.328125 51.578125 -12.207031 53.546875 -13.96875 C 55.523438 -15.726562 58.171875 -18.585938 61.484375 -22.546875 C 62.347656 -23.546875 63.316406 -24.046875 64.390625 -24.046875 C 65.328125 -24.046875 66.0625 -23.613281 66.59375 -22.75 C 67.132812 -21.894531 67.40625 -20.710938 67.40625 -19.203125 C 67.40625 -16.328125 66.722656 -14.097656 65.359375 -12.515625 C 62.265625 -8.703125 58.9375 -5.570312 55.375 -3.125 C 51.820312 -0.675781 47.78125 0.546875 43.25 0.546875 C 39.582031 0.546875 36.8125 -0.515625 34.9375 -2.640625 C 33.070312 -4.765625 32.140625 -7.835938 32.140625 -11.859375 C 32.140625 -13.878906 32.644531 -17.476562 33.65625 -22.65625 C 34.582031 -27.1875 35.046875 -30.3125 35.046875 -32.03125 C 35.046875 -33.1875 34.65625 -33.765625 33.875 -33.765625 C 32.9375 -33.765625 31.617188 -32.554688 29.921875 -30.140625 C 28.234375 -27.734375 26.507812 -24.550781 24.75 -20.59375 C 22.988281 -16.644531 21.570312 -12.476562 20.5 -8.09375 C 19.707031 -4.707031 18.785156 -2.421875 17.734375 -1.234375 C 16.691406 -0.046875 15.054688 0.546875 12.828125 0.546875 Z M 12.828125 0.546875" transform="translate(107.325 116.684)"/></g></g></g><g fill="#423D3D"><g><g><path d="M 19.3125 -57.375 C 16.289062 -57.375 14.023438 -58.078125 12.515625 -59.484375 C 11.003906 -60.890625 10.25 -62.847656 10.25 -65.359375 C 10.25 -67.878906 11.234375 -69.984375 13.203125 -71.671875 C 15.179688 -73.359375 17.644531 -74.203125 20.59375 -74.203125 C 23.257812 -74.203125 25.414062 -73.554688 27.0625 -72.265625 C 28.71875 -70.972656 29.546875 -69.140625 29.546875 -66.765625 C 29.546875 -63.890625 28.609375 -61.601562 26.734375 -59.90625 C 24.867188 -58.21875 22.394531 -57.375 19.3125 -57.375 Z M 18.4375 0.546875 C 13.769531 0.546875 10.375 -1.109375 8.25 -4.421875 C 6.125 -7.734375 5.0625 -12.117188 5.0625 -17.578125 C 5.0625 -20.816406 5.472656 -24.96875 6.296875 -30.03125 C 7.128906 -35.101562 8.191406 -39.832031 9.484375 -44.21875 C 10.140625 -46.519531 11.003906 -48.101562 12.078125 -48.96875 C 13.160156 -49.832031 14.882812 -50.265625 17.25 -50.265625 C 20.925781 -50.265625 22.765625 -49.039062 22.765625 -46.59375 C 22.765625 -44.800781 22.078125 -40.628906 20.703125 -34.078125 C 18.984375 -26.171875 18.125 -20.816406 18.125 -18.015625 C 18.125 -15.859375 18.410156 -14.203125 18.984375 -13.046875 C 19.554688 -11.898438 20.523438 -11.328125 21.890625 -11.328125 C 23.191406 -11.328125 24.8125 -12.222656 26.75 -14.015625 C 28.6875 -15.816406 31.273438 -18.660156 34.515625 -22.546875 C 35.378906 -23.546875 36.347656 -24.046875 37.421875 -24.046875 C 38.359375 -24.046875 39.097656 -23.613281 39.640625 -22.75 C 40.179688 -21.894531 40.453125 -20.710938 40.453125 -19.203125 C 40.453125 -16.328125 39.765625 -14.097656 38.390625 -12.515625 C 31.273438 -3.804688 24.625 0.546875 18.4375 0.546875 Z M 18.4375 0.546875" transform="translate(160.818 116.684)"/></g></g></g><g fill="#423D3D"><g><g><path d="M 12.828125 0.546875 C 10.097656 0.546875 8.175781 -0.890625 7.0625 -3.765625 C 5.945312 -6.648438 5.390625 -11.253906 5.390625 -17.578125 C 5.390625 -26.929688 6.722656 -35.8125 9.390625 -44.21875 C 10.035156 -46.300781 11.09375 -47.828125 12.5625 -48.796875 C 14.039062 -49.773438 16.109375 -50.265625 18.765625 -50.265625 C 20.203125 -50.265625 21.207031 -50.082031 21.78125 -49.71875 C 22.363281 -49.363281 22.65625 -48.679688 22.65625 -47.671875 C 22.65625 -46.523438 22.113281 -43.9375 21.03125 -39.90625 C 20.3125 -37.03125 19.734375 -34.515625 19.296875 -32.359375 C 18.867188 -30.203125 18.515625 -27.539062 18.234375 -24.375 C 20.597656 -30.5625 23.253906 -35.59375 26.203125 -39.46875 C 29.148438 -43.351562 32.046875 -46.125 34.890625 -47.78125 C 37.734375 -49.4375 40.34375 -50.265625 42.71875 -50.265625 C 47.382812 -50.265625 49.71875 -47.925781 49.71875 -43.25 C 49.71875 -42.3125 49.394531 -40.046875 48.75 -36.453125 C 48.175781 -33.578125 47.890625 -31.78125 47.890625 -31.0625 C 47.890625 -28.539062 48.789062 -27.28125 50.59375 -27.28125 C 52.601562 -27.28125 55.191406 -28.863281 58.359375 -32.03125 C 59.285156 -32.96875 60.253906 -33.4375 61.265625 -33.4375 C 62.203125 -33.4375 62.9375 -33.019531 63.46875 -32.1875 C 64.007812 -31.363281 64.28125 -30.269531 64.28125 -28.90625 C 64.28125 -26.25 63.5625 -24.164062 62.125 -22.65625 C 60.113281 -20.5625 57.757812 -18.773438 55.0625 -17.296875 C 52.363281 -15.828125 49.503906 -15.09375 46.484375 -15.09375 C 42.671875 -15.09375 39.773438 -16.0625 37.796875 -18 C 35.828125 -19.945312 34.84375 -22.578125 34.84375 -25.890625 C 34.84375 -26.960938 34.945312 -28.039062 35.15625 -29.125 C 35.300781 -30.5625 35.375 -31.53125 35.375 -32.03125 C 35.375 -33.1875 34.976562 -33.765625 34.1875 -33.765625 C 33.113281 -33.765625 31.691406 -32.554688 29.921875 -30.140625 C 28.160156 -27.734375 26.414062 -24.550781 24.6875 -20.59375 C 22.96875 -16.644531 21.570312 -12.476562 20.5 -8.09375 C 19.707031 -4.707031 18.785156 -2.421875 17.734375 -1.234375 C 16.691406 -0.046875 15.054688 0.546875 12.828125 0.546875 Z M 12.828125 0.546875" transform="translate(187.349 116.684)"/></g></g></g><g fill="#423D3D"><g><g><path d="M 60.1875 -33.109375 C 61.125 -33.109375 61.84375 -32.640625 62.34375 -31.703125 C 62.84375 -30.773438 63.09375 -29.59375 63.09375 -28.15625 C 63.09375 -24.695312 62.050781 -22.644531 59.96875 -22 C 55.65625 -20.488281 50.910156 -19.628906 45.734375 -19.421875 C 44.367188 -13.378906 41.671875 -8.539062 37.640625 -4.90625 C 33.617188 -1.269531 29.050781 0.546875 23.9375 0.546875 C 19.625 0.546875 15.941406 -0.492188 12.890625 -2.578125 C 9.835938 -4.671875 7.519531 -7.441406 5.9375 -10.890625 C 4.351562 -14.347656 3.5625 -18.085938 3.5625 -22.109375 C 3.5625 -27.578125 4.601562 -32.445312 6.6875 -36.71875 C 8.769531 -41 11.644531 -44.34375 15.3125 -46.75 C 18.976562 -49.164062 23.039062 -50.375 27.5 -50.375 C 32.96875 -50.375 37.375 -48.484375 40.71875 -44.703125 C 44.0625 -40.929688 46.019531 -36.273438 46.59375 -30.734375 C 49.976562 -30.953125 54.003906 -31.671875 58.671875 -32.890625 C 59.242188 -33.035156 59.75 -33.109375 60.1875 -33.109375 Z M 24.8125 -10.890625 C 27.113281 -10.890625 29.109375 -11.820312 30.796875 -13.6875 C 32.484375 -15.5625 33.613281 -18.257812 34.1875 -21.78125 C 31.957031 -23.289062 30.25 -25.269531 29.0625 -27.71875 C 27.875 -30.164062 27.28125 -32.753906 27.28125 -35.484375 C 27.28125 -36.640625 27.390625 -37.789062 27.609375 -38.9375 L 27.078125 -38.9375 C 24.203125 -38.9375 21.8125 -37.550781 19.90625 -34.78125 C 18 -32.007812 17.046875 -28.109375 17.046875 -23.078125 C 17.046875 -19.128906 17.816406 -16.109375 19.359375 -14.015625 C 20.910156 -11.929688 22.726562 -10.890625 24.8125 -10.890625 Z M 24.8125 -10.890625" transform="translate(236.42 116.684)"/></g></g></g><g fill="#423D3D"><g><g><path d="M 62.5625 -33.109375 C 63.488281 -33.109375 64.203125 -32.640625 64.703125 -31.703125 C 65.210938 -30.773438 65.46875 -29.59375 65.46875 -28.15625 C 65.46875 -26.351562 65.210938 -24.96875 64.703125 -24 C 64.203125 -23.03125 63.414062 -22.363281 62.34375 -22 C 58.03125 -20.488281 53.285156 -19.628906 48.109375 -19.421875 C 46.671875 -13.453125 43.953125 -8.628906 39.953125 -4.953125 C 35.960938 -1.285156 31.5625 0.546875 26.75 0.546875 C 19.488281 0.546875 14.203125 -2.222656 10.890625 -7.765625 C 7.585938 -13.304688 5.9375 -21.320312 5.9375 -31.8125 C 5.9375 -41.09375 7.082031 -51.175781 9.375 -62.0625 C 11.675781 -72.957031 15.039062 -82.234375 19.46875 -89.890625 C 23.894531 -97.554688 29.160156 -101.390625 35.265625 -101.390625 C 38.578125 -101.390625 41.238281 -99.96875 43.25 -97.125 C 45.257812 -94.28125 46.265625 -90.597656 46.265625 -86.078125 C 46.265625 -80.179688 45.148438 -74.316406 42.921875 -68.484375 C 40.691406 -62.660156 36.988281 -56.550781 31.8125 -50.15625 C 36.632812 -49.789062 40.554688 -47.789062 43.578125 -44.15625 C 46.597656 -40.53125 48.394531 -36.054688 48.96875 -30.734375 C 52.34375 -30.953125 56.367188 -31.671875 61.046875 -32.890625 C 61.484375 -33.035156 61.988281 -33.109375 62.5625 -33.109375 Z M 32.796875 -90.703125 C 31.347656 -90.703125 29.78125 -88.5625 28.09375 -84.28125 C 26.40625 -80.007812 24.84375 -74.207031 23.40625 -66.875 C 21.96875 -59.539062 20.890625 -51.519531 20.171875 -42.8125 C 24.910156 -51.519531 28.703125 -59.195312 31.546875 -65.84375 C 34.390625 -72.5 35.8125 -78.414062 35.8125 -83.59375 C 35.8125 -85.894531 35.539062 -87.65625 35 -88.875 C 34.457031 -90.09375 33.722656 -90.703125 32.796875 -90.703125 Z M 27.1875 -10.890625 C 29.414062 -10.890625 31.390625 -11.820312 33.109375 -13.6875 C 34.835938 -15.5625 35.988281 -18.257812 36.5625 -21.78125 C 34.332031 -23.289062 32.625 -25.269531 31.4375 -27.71875 C 30.25 -30.164062 29.65625 -32.753906 29.65625 -35.484375 C 29.65625 -36.492188 29.800781 -37.859375 30.09375 -39.578125 L 29.765625 -39.578125 C 26.816406 -39.578125 24.351562 -38.117188 22.375 -35.203125 C 20.40625 -32.296875 19.421875 -28.398438 19.421875 -23.515625 C 19.421875 -19.410156 20.191406 -16.28125 21.734375 -14.125 C 23.273438 -11.96875 25.09375 -10.890625 27.1875 -10.890625 Z M 27.1875 -10.890625" transform="translate(285.06 116.684)"/></g></g></g><g fill="#00AF2C"><g><g><path d="M 22.402344 -8.480469 C 22.402344 -6.089844 21.53125 -4.132812 19.898438 -2.5 C 18.269531 -0.761719 16.203125 0 13.917969 0 C 11.527344 0 9.570312 -0.871094 7.9375 -2.609375 C 6.308594 -4.242188 5.4375 -6.199219 5.4375 -8.480469 C 5.4375 -10.875 6.308594 -12.832031 7.9375 -14.460938 C 9.679688 -16.203125 11.636719 -16.855469 14.027344 -16.855469 C 16.3125 -16.855469 18.269531 -16.09375 19.898438 -14.460938 C 21.53125 -12.832031 22.402344 -10.765625 22.402344 -8.480469 Z M 22.402344 -8.480469" transform="translate(347.106 114.602)"/></g></g></g></svg>