<svg xmlns="http://www.w3.org/2000/svg" width="187.5" viewBox="0 0 187.5 187.5" height="187.5" version="1.0"><defs><clipPath id="a"><path d="M 0 0 L 187 0 L 187 187 L 0 187 Z M 0 0"/></clipPath></defs><g clip-path="url(#a)"><path fill="#00AF2C" d="M 93.75 0 C 41.972656 0 0 41.972656 0 93.75 C 0 145.527344 41.972656 187.5 93.75 187.5 C 145.527344 187.5 187.5 145.527344 187.5 93.75 C 187.5 41.972656 145.527344 0 93.75 0"/></g><g fill="#FFF"><g><g><path d="M 22.1875 0.65625 C 16.820312 0.65625 12.539062 -1.289062 9.34375 -5.1875 C 6.144531 -9.082031 4.546875 -14.1875 4.546875 -20.5 C 4.546875 -27.414062 6.144531 -33.96875 9.34375 -40.15625 C 12.539062 -46.34375 16.800781 -51.316406 22.125 -55.078125 C 27.445312 -58.835938 33.09375 -60.71875 39.0625 -60.71875 C 40.957031 -60.71875 42.226562 -60.347656 42.875 -59.609375 C 43.53125 -58.878906 44.070312 -57.5625 44.5 -55.65625 C 46.320312 -56.007812 48.226562 -56.1875 50.21875 -56.1875 C 54.457031 -56.1875 56.578125 -54.671875 56.578125 -51.640625 C 56.578125 -49.828125 55.925781 -45.503906 54.625 -38.671875 C 52.632812 -28.722656 51.640625 -21.800781 51.640625 -17.90625 C 51.640625 -16.601562 51.960938 -15.5625 52.609375 -14.78125 C 53.265625 -14.007812 54.109375 -13.625 55.140625 -13.625 C 56.785156 -13.625 58.773438 -14.679688 61.109375 -16.796875 C 63.441406 -18.921875 66.597656 -22.363281 70.578125 -27.125 C 71.617188 -28.332031 72.789062 -28.9375 74.09375 -28.9375 C 75.21875 -28.9375 76.101562 -28.414062 76.75 -27.375 C 77.394531 -26.332031 77.71875 -24.90625 77.71875 -23.09375 C 77.71875 -19.632812 76.894531 -16.953125 75.25 -15.046875 C 71.707031 -10.640625 67.945312 -6.921875 63.96875 -3.890625 C 59.988281 -0.859375 56.140625 0.65625 52.421875 0.65625 C 49.566406 0.65625 46.945312 -0.316406 44.5625 -2.265625 C 42.1875 -4.210938 40.394531 -6.875 39.1875 -10.25 C 34.6875 -2.976562 29.019531 0.65625 22.1875 0.65625 Z M 26.859375 -12.453125 C 28.765625 -12.453125 30.582031 -13.578125 32.3125 -15.828125 C 34.039062 -18.078125 35.296875 -21.0625 36.078125 -24.78125 L 40.875 -48.65625 C 37.238281 -48.570312 33.882812 -47.207031 30.8125 -44.5625 C 27.738281 -41.925781 25.296875 -38.445312 23.484375 -34.125 C 21.671875 -29.800781 20.765625 -25.21875 20.765625 -20.375 C 20.765625 -17.6875 21.300781 -15.691406 22.375 -14.390625 C 23.457031 -13.097656 24.953125 -12.453125 26.859375 -12.453125 Z M 26.859375 -12.453125" transform="translate(18.764 137.283)"/></g></g></g><g fill="#FFF"><g><g><path d="M 81.21875 -28.9375 C 82.34375 -28.9375 83.226562 -28.414062 83.875 -27.375 C 84.53125 -26.332031 84.859375 -24.90625 84.859375 -23.09375 C 84.859375 -19.632812 84.035156 -16.953125 82.390625 -15.046875 C 78.492188 -10.296875 74.554688 -6.488281 70.578125 -3.625 C 66.597656 -0.769531 61.882812 0.65625 56.4375 0.65625 C 49.78125 0.65625 44.414062 -1.242188 40.34375 -5.046875 C 36.28125 -8.859375 34.25 -13.921875 34.25 -20.234375 C 34.25 -23.609375 35.976562 -26.03125 39.4375 -27.5 C 43.25 -29.144531 45.972656 -30.894531 47.609375 -32.75 C 49.253906 -34.613281 50.078125 -36.890625 50.078125 -39.578125 C 50.078125 -41.128906 49.753906 -42.296875 49.109375 -43.078125 C 48.460938 -43.859375 47.660156 -44.25 46.703125 -44.25 C 44.367188 -44.25 41.796875 -42.5625 38.984375 -39.1875 C 36.171875 -35.8125 33.550781 -31.460938 31.125 -26.140625 C 28.707031 -20.828125 26.8125 -15.359375 25.4375 -9.734375 C 24.476562 -5.671875 23.367188 -2.921875 22.109375 -1.484375 C 20.859375 -0.0546875 18.894531 0.65625 16.21875 0.65625 C 13.539062 0.65625 11.570312 -0.316406 10.3125 -2.265625 C 9.0625 -4.210938 8.21875 -7.21875 7.78125 -11.28125 C 7.351562 -15.351562 7.140625 -21.320312 7.140625 -29.1875 C 7.140625 -42.507812 8.5 -56.394531 11.21875 -70.84375 C 13.945312 -85.289062 17.96875 -97.421875 23.28125 -107.234375 C 28.601562 -117.054688 34.984375 -121.96875 42.421875 -121.96875 C 46.398438 -121.96875 49.625 -120.257812 52.09375 -116.84375 C 54.5625 -113.425781 55.796875 -108.992188 55.796875 -103.546875 C 55.796875 -94.804688 53.242188 -85.742188 48.140625 -76.359375 C 43.035156 -66.972656 34.726562 -56.007812 23.21875 -43.46875 C 22.96875 -38.96875 22.84375 -34.335938 22.84375 -29.578125 C 26.988281 -40.390625 31.742188 -48.238281 37.109375 -53.125 C 42.472656 -58.019531 47.488281 -60.46875 52.15625 -60.46875 C 56.476562 -60.46875 59.957031 -58.992188 62.59375 -56.046875 C 65.238281 -53.109375 66.5625 -49.476562 66.5625 -45.15625 C 66.5625 -40.394531 65.347656 -36.023438 62.921875 -32.046875 C 60.503906 -28.066406 56.351562 -24.519531 50.46875 -21.40625 C 50.8125 -19.070312 51.867188 -17.191406 53.640625 -15.765625 C 55.421875 -14.335938 57.566406 -13.625 60.078125 -13.625 C 62.753906 -13.625 65.347656 -14.660156 67.859375 -16.734375 C 70.367188 -18.816406 73.65625 -22.28125 77.71875 -27.125 C 78.757812 -28.332031 79.925781 -28.9375 81.21875 -28.9375 Z M 39.703125 -109.125 C 38.148438 -109.125 36.421875 -106.894531 34.515625 -102.4375 C 32.609375 -97.976562 30.769531 -91.960938 29 -84.390625 C 27.226562 -76.828125 25.78125 -68.59375 24.65625 -59.6875 C 30.019531 -66 34.453125 -72.875 37.953125 -80.3125 C 41.453125 -87.75 43.203125 -94.5 43.203125 -100.5625 C 43.203125 -103.320312 42.898438 -105.4375 42.296875 -106.90625 C 41.691406 -108.382812 40.828125 -109.125 39.703125 -109.125 Z M 39.703125 -109.125" transform="translate(79.744 137.283)"/></g></g></g></svg>