<svg xmlns="http://www.w3.org/2000/svg" xmlns:xlink="http://www.w3.org/1999/xlink" id="Ebene_1" x="0px" y="0px" viewBox="0 0 240 85" style="enable-background:new 0 0 240 85;" xml:space="preserve"><style type="text/css">	.st0{fill:#E32025;}	.st1{fill:#FFFFFF;}</style><title>logo-white</title><g>	<path class="st0" d="M2.9,30.2H21c1.1,0,2,0.9,2,1.9v18.1c0,1.1-0.9,1.9-2,1.9H2.9c-1.1,0-1.9-0.9-1.9-1.9v-18  C0.9,31.1,1.8,30.2,2.9,30.2z"></path>	<path class="st1" d="M33.3,52.3c-0.2-0.2-0.2-0.3-0.2-0.5l0.1-0.3L41.9,28c0.2-0.5,0.7-0.9,1.3-0.9h4c0.5,0,1.1,0.3,1.3,0.9  l8.6,23.4l0.1,0.3c0,0.2-0.1,0.4-0.2,0.5c-0.2,0.2-0.3,0.2-0.5,0.2h-3.2c-0.5,0-0.9-0.2-1-0.7l-1.6-4.4H39.8l-1.6,4.4  c-0.2,0.5-0.6,0.7-1,0.7h-3.2C33.6,52.5,33.4,52.4,33.3,52.3z M41.1,43.1h8.2L45.1,32L41.1,43.1z"></path>	<path class="st1" d="M61,59.1c-0.2-0.2-0.2-0.4-0.2-0.6V34.4c0-0.2,0.1-0.5,0.2-0.6c0.2-0.2,0.4-0.2,0.6-0.2h2.9  c0.2,0,0.5,0.1,0.6,0.2c0.2,0.2,0.2,0.4,0.2,0.6v1.5c1.3-1.8,3.2-2.7,5.8-2.7c2.1-0.2,4.2,0.7,5.6,2.3c1.4,1.8,2.1,3.9,2.1,6.2  c0,0.3,0.1,0.7,0.1,1.3s0,1-0.1,1.3c0,2.2-0.7,4.4-2.1,6.1c-1.4,1.6-3.5,2.5-5.6,2.4c-2.2,0.2-4.2-0.9-5.6-2.6v8.2  c0,0.2-0.1,0.5-0.2,0.6c-0.2,0.2-0.4,0.2-0.6,0.2h-3.1C61.3,59.3,61.1,59.3,61,59.1z M73.9,44.1c0-0.2,0-0.6,0-1.1  c0-0.5,0-0.9,0-1.1c-0.2-3.2-1.6-4.8-4.2-4.8c-1.2-0.1-2.4,0.4-3.1,1.3c-0.7,0.9-1.1,2.1-1.1,3.3c0,0.3-0.1,0.8-0.1,1.4  c0,0.6,0,1.1,0.1,1.4c0,1.1,0.4,2.2,1.1,3.1c0.8,0.9,1.9,1.3,3.1,1.3C72.3,48.9,73.7,47.3,73.9,44.1z"></path>	<path class="st1" d="M82.7,59.1c-0.2-0.2-0.2-0.4-0.2-0.6V34.4c0-0.2,0.1-0.5,0.2-0.6c0.2-0.2,0.4-0.2,0.6-0.2h2.9  c0.2,0,0.5,0.1,0.6,0.2c0.2,0.2,0.2,0.4,0.2,0.6v1.5c1.3-1.8,3.2-2.7,5.8-2.7c2.1-0.2,4.2,0.7,5.6,2.3c1.4,1.7,2.1,3.9,2.1,6.2  c0,0.3,0,0.7,0,1.3s0,1,0,1.3c0,2.2-0.7,4.4-2.1,6.1c-1.4,1.6-3.5,2.5-5.6,2.4c-2.2,0.2-4.2-0.9-5.6-2.6v8.2c0,0.2-0.1,0.5-0.2,0.6  c-0.2,0.2-0.4,0.2-0.6,0.2h-3.1C83.1,59.3,82.9,59.3,82.7,59.1z M95.7,44.1c0-0.2,0.1-0.6,0.1-1.1c0-0.5,0-0.9-0.1-1.1  c-0.2-3.2-1.6-4.8-4.2-4.8c-1.2-0.1-2.4,0.4-3.1,1.3c-0.7,0.9-1.1,2.1-1.1,3.3c0,0.3,0,0.8,0,1.4c0,0.6,0,1.1,0,1.4  c0,1.1,0.4,2.2,1.1,3.1c0.8,0.9,1.9,1.3,3.1,1.3C94.1,48.9,95.5,47.3,95.7,44.1z"></path>	<path class="st1" d="M107.3,52c-1-0.4-2-1.1-2.7-2c-0.5-0.5-0.8-1.2-0.9-1.9c0-0.2,0.1-0.4,0.2-0.5s0.4-0.2,0.5-0.2h3  c0.2,0,0.4,0.1,0.5,0.3c0.2,0.1,0.4,0.3,0.9,0.7c0.4,0.4,0.9,0.6,1.5,0.9s1.2,0.3,1.8,0.3c0.8,0,1.6-0.2,2.4-0.5  c0.5-0.3,0.9-0.9,0.9-1.6c0-0.5-0.2-0.9-0.4-1.2c-0.4-0.4-0.9-0.7-1.5-0.9c-1-0.3-2.1-0.6-3.2-0.9c-1.6-0.2-3.2-0.9-4.5-2  c-1-0.9-1.5-2.2-1.5-3.5c0-1,0.3-2,0.9-2.7c0.6-0.9,1.6-1.6,2.6-2.1c1.3-0.5,2.7-0.9,4.2-0.8c1.5,0,2.9,0.2,4.2,0.8  c1,0.4,2,1,2.7,1.8c0.5,0.5,0.9,1.2,0.9,2c0,0.5-0.3,0.8-0.8,0.8h-2.7c-0.2,0-0.5-0.1-0.6-0.3c-0.2-0.2-0.5-0.3-0.8-0.6  c-0.4-0.3-0.8-0.6-1.3-0.8c-0.5-0.2-1.1-0.3-1.6-0.3c-0.7-0.1-1.5,0.2-2,0.5c-0.5,0.4-0.8,0.9-0.7,1.6c0,0.4,0.1,0.7,0.3,1  c0.4,0.4,0.9,0.6,1.4,0.8c1,0.3,2,0.6,3.1,0.8c4.4,0.9,6.5,2.7,6.5,5.7c0,1.6-0.8,3.2-2.2,4.2c-1.5,1-3.6,1.6-6.2,1.6  C110.3,52.8,108.8,52.5,107.3,52z"></path>	<path class="st1" d="M127.6,52.3c-0.2-0.2-0.2-0.4-0.2-0.5V35.7h-3.2c-0.5,0-0.8-0.3-0.8-0.8v-0.5c0-0.2,0.1-0.4,0.2-0.5  s0.4-0.2,0.5-0.2h3.2v-2c-0.1-1.6,0.3-3.1,1.2-4.3c0.8-1,2.2-1.6,4.3-1.6h1.9c0.5,0,0.8,0.3,0.8,0.8V27c0,0.5-0.3,0.8-0.8,0.8h-1.9  c-0.9-0.1-1.9,0.2-2.6,0.9c-0.5,0.9-0.8,2-0.7,3.1v1.9h4.8c0.5,0,0.8,0.3,0.8,0.8V35c0,0.2-0.1,0.4-0.2,0.5  c-0.2,0.2-0.4,0.2-0.5,0.2h-4.8v16c0,0.2-0.1,0.4-0.2,0.5c-0.2,0.2-0.4,0.2-0.6,0.2h-0.6C128,52.5,127.8,52.5,127.6,52.3z"></path>	<path class="st1" d="M141.3,52.1c-0.9-0.5-1.7-1.1-2.4-2c-0.5-0.8-0.9-1.7-0.9-2.7c0-1.6,0.7-3,2-3.9c1.6-1.1,3.4-1.8,5.3-2  l5.7-0.8v-1.3c0.1-1.2-0.4-2.3-1.3-3.1c-1.1-0.8-2.4-1.2-3.7-1.1c-1.1-0.1-2.1,0.2-3.1,0.7c-0.7,0.4-1.3,1-1.5,1.7  c-0.1,0.2-0.2,0.4-0.3,0.6c-0.2,0.1-0.3,0.2-0.5,0.2h-0.5c-0.5,0-0.8-0.3-0.8-0.8c0.1-0.7,0.3-1.3,0.7-1.9c0.5-0.8,1.3-1.4,2.3-1.9  c1.2-0.5,2.4-0.9,3.8-0.8c2.6,0,4.5,0.6,5.5,1.9c1.1,1.3,1.6,2.8,1.6,4.5v12.1c0,0.2-0.1,0.4-0.2,0.5c-0.2,0.2-0.4,0.2-0.5,0.2  h-0.6c-0.2,0-0.4-0.1-0.5-0.2c-0.2-0.2-0.2-0.4-0.2-0.5v-1.7c-0.6,0.9-1.4,1.6-2.4,2c-1.3,0.6-2.7,0.9-4.1,0.9  C143.4,52.8,142.3,52.6,141.3,52.1z M149.3,48.9c1.3-1.4,1.8-3.2,1.7-5v-1.3l-4.7,0.6c-1.6,0.2-3.1,0.6-4.5,1.4  c-0.9,0.5-1.6,1.4-1.6,2.5c0,1,0.5,2,1.4,2.6C144,51.3,147.2,51,149.3,48.9L149.3,48.9z"></path>	<path class="st1" d="M159.2,50.7c-1.4-1.5-2.1-3.5-2.2-6.1v-1.4v-1.6c0.1-2.6,0.8-4.6,2.2-6.1c1.4-1.5,3.3-2.2,5.9-2.2  c1.4-0.1,2.8,0.2,4.1,0.9c1,0.5,1.9,1.3,2.5,2.2c0.5,0.8,0.9,1.7,0.9,2.7c0,0.2-0.1,0.4-0.2,0.5c-0.2,0.2-0.4,0.2-0.6,0.2h-0.5  c-0.2,0-0.4-0.1-0.5-0.2c-0.2-0.2-0.2-0.4-0.3-0.6c-0.3-1.2-1.1-2.1-2-2.8c-1-0.6-2.1-0.9-3.3-0.9c-1.6-0.1-3.1,0.5-4.2,1.6  c-1,1-1.6,2.7-1.6,4.9l-0.1,1.3l0.1,1.3c0.1,2.2,0.6,3.8,1.6,4.9c1.1,1.1,2.6,1.6,4.2,1.6c1.2,0.1,2.3-0.2,3.3-0.9  c1-0.7,1.7-1.6,2-2.8c0.1-0.2,0.2-0.4,0.3-0.6c0.2-0.2,0.3-0.2,0.5-0.2h0.5c0.2,0,0.4,0.1,0.6,0.2c0.2,0.2,0.2,0.4,0.2,0.5  c-0.1,0.9-0.4,1.9-0.9,2.7c-0.6,0.9-1.5,1.7-2.5,2.2c-1.3,0.6-2.7,0.9-4.1,0.9C162.5,52.8,160.6,52.1,159.2,50.7z"></path>	<path class="st1" d="M179.9,50.8c-0.8-1.3-1.3-2.9-1.1-4.5V35.7H176c-0.5,0-0.8-0.3-0.8-0.8v-0.5c0-0.2,0.1-0.4,0.2-0.5  c0.2-0.2,0.4-0.2,0.5-0.2h2.8v-6.1c0-0.5,0.3-0.8,0.8-0.8h0.6c0.5,0,0.8,0.3,0.8,0.8v6.1h4.5c0.2,0,0.4,0.1,0.5,0.2  c0.2,0.2,0.2,0.4,0.2,0.5v0.5c0,0.5-0.3,0.8-0.8,0.8H181v10.6c-0.1,1.1,0.2,2.1,0.7,3.1c0.5,0.7,1.3,1.1,2.3,1h2  c0.5,0,0.8,0.3,0.8,0.8v0.5c0,0.2-0.1,0.4-0.2,0.5c-0.2,0.2-0.4,0.2-0.5,0.2h-2.1C181.9,52.5,180.6,51.9,179.9,50.8z"></path>	<path class="st1" d="M191.7,50.5c-1.4-1.6-2.2-3.8-2.2-6V43v-1.6c0-2.2,0.8-4.3,2.2-6c3.3-3.1,8.5-3.1,11.8,0  c1.4,1.6,2.2,3.8,2.2,6c0,0.2,0,0.8,0,1.6c0,0.8,0,1.3,0,1.5c0,2.2-0.8,4.3-2.2,6C200.1,53.6,195,53.6,191.7,50.5z M201.8,49.1  c1.1-1.3,1.7-3,1.6-4.7c0-0.2,0-0.7,0-1.3s0-1.1,0-1.3c0.1-1.7-0.5-3.4-1.6-4.7c-2.4-2.2-6-2.2-8.3,0c-1.1,1.3-1.7,3-1.6,4.7V43  v1.3c-0.1,1.7,0.5,3.4,1.6,4.7C195.7,51.3,199.4,51.3,201.8,49.1z"></path>	<path class="st1" d="M210.9,52.3c-0.2-0.2-0.2-0.4-0.2-0.5V34.5c0-0.2,0.1-0.5,0.2-0.6c0.2-0.2,0.4-0.2,0.5-0.2h0.6  c0.2,0,0.5,0.1,0.6,0.2c0.2,0.2,0.2,0.4,0.2,0.6v1.6c0.9-1.6,2.5-2.5,4.9-2.5h1.3c0.2,0,0.4,0.1,0.5,0.2c0.2,0.2,0.2,0.4,0.2,0.5  V35c0,0.5-0.3,0.8-0.8,0.8h-1.6c-2.4-0.2-4.5,1.6-4.7,4c0,0.2,0,0.5,0,0.7v11.3c0,0.2-0.1,0.4-0.2,0.5c-0.2,0.2-0.4,0.2-0.6,0.2  h-0.6C211.2,52.5,211,52.4,210.9,52.3z"></path>	<path class="st1" d="M226.9,59.1c-0.2-0.2-0.2-0.3-0.2-0.5s0.1-0.5,0.2-0.7l2.8-6.5l-6.9-16.3c-0.1-0.2-0.2-0.5-0.2-0.7  c0-0.2,0.1-0.4,0.2-0.5c0.2-0.2,0.3-0.2,0.5-0.2h0.8c0.4,0,0.7,0.2,0.9,0.5l6.1,14.3l6.3-14.3c0.2-0.3,0.5-0.5,0.9-0.5h0.7  c0.2,0,0.4,0.1,0.5,0.2c0.2,0.2,0.2,0.3,0.2,0.5c0,0.2-0.1,0.5-0.2,0.7L229,58.8c-0.2,0.3-0.5,0.5-0.9,0.5h-0.7  C227.2,59.3,227.1,59.3,226.9,59.1z"></path></g></svg>